<svg width="45" height="58" xmlns="http://www.w3.org/2000/svg"><g fill-rule="nonzero" fill="none"><path d="M17.561 53.694c.52.445.861.743 1.111.964.54.47.667.58 1.29 1.052.594-.204 1.196-.408 1.807-.613l.859-.276c.872-.293 1.747-.585 2.616-.884l2.114-1.46.02.12a45.573 45.573 0 0 1 2.908-2.137c.405-.74.741-1.516 1.006-2.317.055-.171.139-.376.252-.658 1.014-2.485 1.37-4.198 1.056-5.081-.314-.884.111-1.671.378-2.11a4.15 4.15 0 0 0-.34-.583l-1.321-1.751 2.033-.86a17.166 17.166 0 0 0 4.886-3.366A3.062 3.062 0 0 1 40 32.867c.546-.77 1.03-1.582 1.444-2.428.124-.404.166-.828.125-1.248l-.172-.777.506-.651a6.987 6.987 0 0 0 1.178-2.113 7.306 7.306 0 0 0-2.142-.724 10.764 10.764 0 0 1-.453-.102c-1.025-.276-2.58-.98-4.111-1.712l-1.414-.674.539-1.464c.153-.41.278-.832.372-1.26a8.347 8.347 0 0 0-.678-1.21l-.022-.032-.116-.213-.017-.036a14.126 14.126 0 0 1-.686-2.367 7.746 7.746 0 0 0-1.32-.942l-.927-.513.041-1.055c.017-.426.047-.829.075-1.183.18-1.665.057-3.349-.364-4.971-.501.493-.957 1.03-1.36 1.605-.44.59-.731.98-1.16 1.25-.479.312-.936.655-1.369 1.028l-.705.622-.908-.257-.784-.224c-1.197-.345-1.744-.503-2.32-.503a6.452 6.452 0 0 0-1.11.122l-1.467.257-.47-1.403c-1.486-4.441-3.177-6.858-4.372-7.513-1.28 2.188-1.914 3.958-2.705 6.662l-.056.193-.1.177c-.153.276-.291.506-.422.73-.994 1.703-1.364 2.336-2.589 7.147l-.122.478-.358.34c-.028.025-2.864 2.762-4.234 5.488-.447.886-.966 1.972-1.55 3.228.025 2.016-.364 3.947-.741 5.814-.145.715-.295 1.45-.412 2.16a47.572 47.572 0 0 0-.522 4.985c2.48 6.021 4.875 8.882 12.73 14.959a2.96 2.96 0 0 1 .15-.343l1.006-1.933 1.653 1.433z" fill="#C3AA84"/><path d="M16.172 53.639l.834.707c.527.453.872.751 1.13.975.539.478 1.102.929 1.686 1.35.734-.256 1.478-.505 2.236-.762l.75-.251c.948-.318 1.898-.635 2.842-.958l1.072-.735.04.248a51.221 51.221 0 0 1 4.185-3.15c.475-.845.867-1.733 1.17-2.652.047-.141.125-.335.233-.6.453-1.104 1.65-4.051 1.07-5.69-.2-.552.11-1.068.338-1.438.07-.108.134-.22.192-.334-.159-.4-.366-.78-.617-1.13l-.664-.878 1.017-.431c1.92-.874 3.67-2.08 5.167-3.56a2.268 2.268 0 0 1 1.62-.658 19.498 19.498 0 0 0 1.783-2.96 3.89 3.89 0 0 0 .155-1.704l-.089-.406.261-.335c.556-.69 1.39-2.049 1.436-3.01-.833-.746-2.163-1.03-2.902-1.188-.167-.036-.309-.066-.414-.094-.953-.248-2.464-.944-3.959-1.657l-.705-.337.278-.732a9.538 9.538 0 0 0 .46-1.657 8.88 8.88 0 0 0-.863-1.585l-.078-.14a14.66 14.66 0 0 1-.686-2.448 7.538 7.538 0 0 0-1.692-1.26l-.464-.256.023-.528c.016-.403.044-.779.072-1.151.12-1.558.23-3.039-.667-6.353-1.01.249-1.991 1.569-2.614 2.406-.397.541-.641.859-.92 1.044-.518.333-1.013.703-1.48 1.105l-.364.325-.455-.127-.78-.223c-1.909-.553-2.306-.663-3.812-.4l-.733.126-.236-.701c-1.667-4.952-3.77-8.051-5.6-8.286-1.547 2.538-2.259 4.472-3.13 7.457l-.029.097-.05.088c-.155.276-.297.517-.43.743-1.028 1.762-1.411 2.42-2.667 7.35l-.06.237-.173.158c-.03.027-2.956 2.836-4.408 5.725-.475.942-1.028 2.096-1.645 3.433.05 2-.336 3.933-.725 5.825-.144.718-.294 1.464-.417 2.187a49.234 49.234 0 0 0-.555 5.27c2.647 6.493 5.178 9.468 14.13 16.295.06-.495.19-.979.39-1.436l.513-.95z" fill="#C3AA84"/><path d="M44.872 24.901c-1.166-1.298-3.289-1.571-3.944-1.742-.917-.24-2.534-.995-3.803-1.6a9.031 9.031 0 0 0 .536-2.043 8.886 8.886 0 0 0-1.033-1.97 15.287 15.287 0 0 1-.672-2.485c-.587-.829-2.078-1.644-2.078-1.644.094-2.248.555-3.667-.803-8.401-2.303-.362-4.053 3.214-4.65 3.59-.558.36-1.09.757-1.592 1.19-2.62-.74-3.055-.974-4.977-.64C20.1 3.95 17.616.016 14.947.276 13.106 3.204 12.34 5.37 11.47 8.35c-1.38 2.422-1.747 2.643-3.183 8.322 0 0-3.055 2.897-4.583 5.96a104.626 104.626 0 0 0-1.742 3.643c.114 2.712-.675 5.372-1.111 8.048a51.128 51.128 0 0 0-.556 5.552c2.812 6.954 5.437 10.025 15.72 17.786.039-1.254.253-2.309.436-2.665 1.994 1.707 1.372 1.246 3.23 2.64.884-.312 1.773-.613 2.664-.911 1.237-.414 2.475-.829 3.709-1.248l.039-.028.091-.03c.278-.097.556-.2.834-.304a51.02 51.02 0 0 1 4.589-3.458c.549-.947.998-1.947 1.341-2.986.236-.726 2.111-4.538 1.297-6.838-.138-.392.764-1.13.556-1.657a6.064 6.064 0 0 0-.772-1.478 18.614 18.614 0 0 0 5.453-3.753 1.475 1.475 0 0 1 1.388-.346s1.473-1.933 2.198-3.59c.394-1.362.18-2.193.18-2.193s1.828-2.232 1.614-3.92" fill="#010101"/><path d="M33.522 42.752c.656 2.737-1.189 5.766-3.364 8.07a7.025 7.025 0 0 0-.08-1.856c-1.767 2.05-5.59 4.587-8.078 5.419-3.492-2.174-4.875-2.864-8.556-6.228-.179.787-.272 1.592-.277 2.4-7.334-6.919-7.286-8.195-8.69-12.078 2.326 3.16 4.21 4.971 7.326 6.905.023-.503.116-1 .278-1.478 2.538 1.933 4.61 2.85 6.969 3.958a115.932 115.932 0 0 1-7.453-9.197 5.015 5.015 0 0 0-.297 1.657 8.836 8.836 0 0 1-2.18-3.174 4.79 4.79 0 0 0-.787 1.113c-1.36-2.922-1.389-3.77.478-6.554.306 1.467.789 2.445 1.43 2.975.077-.26.195-.507.348-.732 1.13 1.395 2.972 3.182 4.317 3.767.73.32 3.158.254 3.925-.276-3.27-1.825-4.464-2.486-6.945-8.01a12.95 12.95 0 0 0 3.214.967 13.381 13.381 0 0 1-3.203-3.789s2.703-.475 3.395-1.224c.17-.185-.214-.679-.306-.847 1.528-.614 2.961-1.365 3.695-2.028.277-.246 1.202-.375 1.769-.29.917.633 1.258 1.751 2.061 2.293.486.328 1.561.24 2.18.05a7.84 7.84 0 0 0 1.884-.937 4.62 4.62 0 0 1-2.911-.939c-.983-.79-1.828-1.933-2.592-2.425a3.16 3.16 0 0 1 .834-.754 3.748 3.748 0 0 1-1.264-.701c1.608-1.025 1.88-2.138 2.414-2.442.41-.178.865-.23 1.305-.146a1.717 1.717 0 0 0-.308-.928c1.364-3.652 2.522-1.76 3.355-2.572 2.245 1.227 3.378 2.505 4.486 5.4-.297-2.699-.75-3.698-1.513-5.088 1.697 1.265 2.222 2.11 2.905 5.212.17-2.527.683-3.256.683-3.256.556.232 1.095.704 1.137.97.11.723.277 1.847.277 1.847.75 1.207.98 1.746 1.003 1.864-.094.276-.208.732-.378.724-.336 0-.555-.552-.555-.552-.297.342-.364.767-.586.781-.556.03-.975-.552-.975-.552.2.663.375 1.284 1.044 1.657.67.373 2.895 1.616 4.636 2.226-.304.08-.597.198-.872.35-.139.63-.2 1.274-.183 1.918.014.226 1.305 1.071 1.822 2.745.07.224.555.605.833.723.267-.092.52-.223.747-.389-.001.42-.049.84-.141 1.251 0 0-.428 1.105-1.197 1.699a4.041 4.041 0 0 0-.556-.705c-.525 0-4.339 2.113-8.289 1.08-2.411-.632-4.98-2.21-6.714-1.04 2.5.237 5.156 2.17 6.803 2.449 2.672.456 3.428-.094 5.047-.243.834-.077 1.292.177 1.242.387-.133.552-3.68 3.068-6.756 2.4-1.255-1.174-3.944-1.914-5.805-1.878-1.35.096-2.853 1.104-2.853 1.104 2.194.19 3.056.633 4.853 2.619a2.99 2.99 0 0 0-1.975.585c2.778 1.815 2.297 5.629 1.194 9.128 1.422-.48 3.442-1.933 4.206-2.875.085.465.112.94.08 1.411a11.201 11.201 0 0 0 2.467-3.927" fill="#FFF"/><path d="M32.222 19.85a2.596 2.596 0 0 1-.516 1.317 4.261 4.261 0 0 1-.614 2.688 6.553 6.553 0 0 0-2.17-2.312 4.602 4.602 0 0 1-2.447.3c-.617-.148-2.308-2.09-3.142-2.278a5.19 5.19 0 0 1 3.084-1.262 4.431 4.431 0 0 0-.24-.953c1.717.218 2.795 2.254 3.723 2.583.87.306 2.325-.083 2.325-.083" fill="#010101"/><path d="M28.286 20.474l-1.594.14a2.082 2.082 0 0 1-.75-.78c.36-.258.8-.379 1.241-.34.461.361 1.111.98 1.111.98M20.683 11.785c-.616-6.388-3.739-9.633-4.85-9.667-2.777 4.013-3.464 9.098-3.055 12.689a9.03 9.03 0 0 1-1.534-1.221c.175 1.11.246 2.233.214 3.356-2.675 1.706-4.025 4.512-4.575 5.982 1.534-1.867 3.95-3.604 6.173-4.093.427-.553.366-1.464.366-1.464.436.05.87-.108 1.167-.428-1.808-5.154.461-10.797 1.389-11.771 1.533.243 2.483 1.933 2.36 3.261-.521-.64-1.471-.428-1.471-.428.458 1.586-.214 3.232-.614 4.483.093.482.298.935.597 1.326-.797 0-1.111.828-1.111.828.736.03 1.072.337 1.228.702 1.78-1.221 2.639-2.898 2.73-3.569.308.146.664.157.98.03M29.289 11.048c.483-2.138 1.864-4.754 3.092-4.643.658 1.964.8 3.234.416 5.77-.386-2.942-1.025-2.947-.783-4.207-1.225.63-1.297 1.074-1.297 2.646a1.42 1.42 0 0 1 .855-.61 4.805 4.805 0 0 0 .264 2.507 14.651 14.651 0 0 0-2.547-1.463M42.853 26.884s1.028-1.149.833-2.046c-1.005-.923-2.703-.232-3.586.356.383.155.786.256 1.197.301 1.342-.226 1.684.24 1.684.24.02.388-.023.776-.128 1.15" fill="#FFF"/></g></svg>